<svg width="24" height="24" viewBox="0 0 24 24" fill="none" xmlns="http://www.w3.org/2000/svg">
<path d="M21.4999 8.00007C21.4984 8.39754 21.3403 8.77842 21.0599 9.06007L13.0599 17.0601C12.7799 17.3434 12.3982 17.5029 11.9999 17.5029C11.6015 17.5029 11.2198 17.3434 10.9399 17.0601L2.93986 9.06007C2.53855 8.68613 2.37336 8.12296 2.50909 7.59149C2.64481 7.06002 3.05981 6.64502 3.59128 6.5093C4.12275 6.37357 4.68592 6.53876 5.05986 6.94007L11.9999 13.8801L18.9399 6.94007C19.2198 6.6567 19.6015 6.49721 19.9999 6.49721C20.3982 6.49721 20.7799 6.6567 21.0599 6.94007C21.3403 7.22172 21.4984 7.6026 21.4999 8.00007Z" fill="#14B8A6"/>
</svg>
